<svg preserveAspectRatio="none" overflow="visible" style="display: block;" width="16" height="16" viewBox="0 0 16 16" fill="none" xmlns="http://www.w3.org/2000/svg">
<g id="Frame">
<path id="Vector" d="M15.7063 8.70625C16.0969 8.31563 16.0969 7.68125 15.7063 7.29063L11.7063 3.29063C11.3156 2.9 10.6812 2.9 10.2906 3.29063C9.9 3.68125 9.9 4.31563 10.2906 4.70625L12.5844 7H6C5.44687 7 5 7.44687 5 8C5 8.55313 5.44687 9 6 9H12.5844L10.2906 11.2937C9.9 11.6844 9.9 12.3188 10.2906 12.7094C10.6812 13.1 11.3156 13.1 11.7063 12.7094L15.7063 8.70938V8.70625ZM5 3C5.55313 3 6 2.55313 6 2C6 1.44687 5.55313 1 5 1H3C1.34375 1 0 2.34375 0 4V12C0 13.6562 1.34375 15 3 15H5C5.55313 15 6 14.5531 6 14C6 13.4469 5.55313 13 5 13H3C2.44687 13 2 12.5531 2 12V4C2 3.44687 2.44687 3 3 3H5Z" fill="#64748B"/>
</g>
</svg>
